<svg width="248" height="218" viewBox="0 0 248 218" fill="none" xmlns="http://www.w3.org/2000/svg">
<path d="M30.5858 97.9943C26.4191 97.9943 22.6667 97.1657 19.3287 95.5085C15.9906 93.8513 13.3154 91.5786 11.3031 88.6903C9.29078 85.8021 8.18993 82.5114 8.00053 78.8182H16.5233C16.8547 82.1089 18.3462 84.8314 20.9977 86.9858C23.6729 89.1165 26.8689 90.1818 30.5858 90.1818C33.5687 90.1818 36.2202 89.4834 38.5403 88.0866C40.8841 86.6899 42.7188 84.7723 44.0446 82.3338C45.394 79.8717 46.0687 77.09 46.0687 73.9886C46.0687 70.8163 45.3703 67.9872 43.9735 65.5014C42.6004 62.992 40.7065 61.0152 38.2917 59.571C35.877 58.1269 33.1189 57.393 30.0176 57.3693C27.7922 57.3456 25.5076 57.6889 23.1639 58.3991C20.8201 59.0857 18.8907 59.9735 17.3755 61.0625L9.1369 60.0682L13.5403 24.2727H51.3244V32.0852H20.9267L18.3699 53.5341H18.796C20.2875 52.3504 22.1577 51.3679 24.4068 50.5866C26.6558 49.8054 28.9996 49.4148 31.438 49.4148C35.8888 49.4148 39.8542 50.4801 43.3343 52.6108C46.8381 54.7178 49.5843 57.6061 51.573 61.2756C53.5853 64.9451 54.5914 69.1354 54.5914 73.8466C54.5914 78.4867 53.5498 82.6297 51.4664 86.2756C49.4068 89.8977 46.5659 92.7623 42.9437 94.8693C39.3216 96.9527 35.2022 97.9943 30.5858 97.9943ZM92.4199 97.9943C87.0695 97.9943 82.5123 96.5384 78.748 93.6264C74.9838 90.6908 72.1074 86.4413 70.1188 80.8778C68.1301 75.2907 67.1358 68.5436 67.1358 60.6364C67.1358 52.7765 68.1301 46.0649 70.1188 40.5014C72.1311 34.9143 75.0194 30.6529 78.7836 27.7173C82.5714 24.758 87.1169 23.2784 92.4199 23.2784C97.723 23.2784 102.257 24.758 106.021 27.7173C109.809 30.6529 112.697 34.9143 114.686 40.5014C116.698 46.0649 117.704 52.7765 117.704 60.6364C117.704 68.5436 116.71 75.2907 114.721 80.8778C112.732 86.4413 109.856 90.6908 106.092 93.6264C102.328 96.5384 97.7703 97.9943 92.4199 97.9943ZM92.4199 90.1818C97.723 90.1818 101.842 87.625 104.778 82.5114C107.713 77.3977 109.181 70.1061 109.181 60.6364C109.181 54.339 108.507 48.9768 107.157 44.5497C105.831 40.1226 103.914 36.7491 101.404 34.429C98.9185 32.1089 95.9237 30.9489 92.4199 30.9489C87.1642 30.9489 83.0568 33.5412 80.0975 38.7259C77.1382 43.8868 75.6586 51.1903 75.6586 60.6364C75.6586 66.9337 76.3214 72.2841 77.6472 76.6875C78.973 81.0909 80.8787 84.4408 83.3645 86.7372C85.874 89.0336 88.8925 90.1818 92.4199 90.1818Z" fill="white"/>
<path d="M154.586 194.994C150.419 194.994 146.667 194.166 143.329 192.509C139.991 190.851 137.315 188.579 135.303 185.69C133.291 182.802 132.19 179.511 132.001 175.818H140.523C140.855 179.109 142.346 181.831 144.998 183.986C147.673 186.116 150.869 187.182 154.586 187.182C157.569 187.182 160.22 186.483 162.54 185.087C164.884 183.69 166.719 181.772 168.045 179.334C169.394 176.872 170.069 174.09 170.069 170.989C170.069 167.816 169.37 164.987 167.974 162.501C166.6 159.992 164.707 158.015 162.292 156.571C159.877 155.127 157.119 154.393 154.018 154.369C151.792 154.346 149.508 154.689 147.164 155.399C144.82 156.086 142.891 156.973 141.376 158.062L133.137 157.068L137.54 121.273H175.324V129.085H144.927L142.37 150.534H142.796C144.287 149.35 146.158 148.368 148.407 147.587C150.656 146.805 153 146.415 155.438 146.415C159.889 146.415 163.854 147.48 167.334 149.611C170.838 151.718 173.584 154.606 175.573 158.276C177.585 161.945 178.591 166.135 178.591 170.847C178.591 175.487 177.55 179.63 175.466 183.276C173.407 186.898 170.566 189.762 166.944 191.869C163.322 193.953 159.202 194.994 154.586 194.994ZM216.42 194.994C211.07 194.994 206.512 193.538 202.748 190.626C198.984 187.691 196.107 183.441 194.119 177.878C192.13 172.291 191.136 165.544 191.136 157.636C191.136 149.777 192.13 143.065 194.119 137.501C196.131 131.914 199.019 127.653 202.784 124.717C206.571 121.758 211.117 120.278 216.42 120.278C221.723 120.278 226.257 121.758 230.021 124.717C233.809 127.653 236.697 131.914 238.686 137.501C240.698 143.065 241.704 149.777 241.704 157.636C241.704 165.544 240.71 172.291 238.721 177.878C236.732 183.441 233.856 187.691 230.092 190.626C226.328 193.538 221.77 194.994 216.42 194.994ZM216.42 187.182C221.723 187.182 225.842 184.625 228.778 179.511C231.713 174.398 233.181 167.106 233.181 157.636C233.181 151.339 232.507 145.977 231.157 141.55C229.831 137.123 227.914 133.749 225.404 131.429C222.919 129.109 219.924 127.949 216.42 127.949C211.164 127.949 207.057 130.541 204.097 135.726C201.138 140.887 199.659 148.19 199.659 157.636C199.659 163.934 200.321 169.284 201.647 173.688C202.973 178.091 204.879 181.441 207.365 183.737C209.874 186.034 212.892 187.182 216.42 187.182Z" fill="white"/>
<path d="M145.558 46.8636L122.121 133.938H114.45L137.888 46.8636H145.558Z" fill="white"/>
</svg>
