<svg width="318" height="300" viewBox="0 0 318 300" fill="none" xmlns="http://www.w3.org/2000/svg">
<circle cx="160" cy="150" r="150" fill="url(#paint0_linear_12_63)"/>
<circle cx="160.5" cy="150.5" r="112" fill="#361F53" stroke="#C4E9F5"/>
<circle cx="160" cy="150" r="96" stroke="#C4E9F5" stroke-width="8"/>
<path d="M168.5 150C168.5 177.605 167.549 202.59 166.012 220.668C165.244 229.71 164.33 237.01 163.318 242.043C162.812 244.563 162.286 246.49 161.751 247.777C161.483 248.422 161.225 248.877 160.986 249.163C160.742 249.454 160.579 249.5 160.5 249.5C160.421 249.5 160.258 249.454 160.014 249.163C159.775 248.877 159.517 248.422 159.249 247.777C158.714 246.49 158.188 244.563 157.682 242.043C156.67 237.01 155.756 229.71 154.988 220.668C153.451 202.59 152.5 177.605 152.5 150C152.5 122.395 153.451 97.4101 154.988 79.3317C155.756 70.2898 156.67 62.9895 157.682 57.957C158.188 55.4368 158.714 53.5101 159.249 52.2234C159.517 51.5778 159.775 51.1227 160.014 50.8372C160.258 50.5464 160.421 50.5 160.5 50.5C160.579 50.5 160.742 50.5464 160.986 50.8372C161.225 51.1227 161.483 51.5778 161.751 52.2234C162.286 53.5101 162.812 55.4368 163.318 57.957C164.33 62.9895 165.244 70.2898 166.012 79.3317C167.549 97.4101 168.5 122.395 168.5 150Z" stroke="#FFDC20" stroke-opacity="0.5"/>
<path d="M168.136 152.386C159.905 178.734 151.546 202.299 144.689 219.097C141.259 227.498 138.21 234.194 135.744 238.696C134.509 240.951 133.432 242.633 132.538 243.701C132.09 244.238 131.707 244.595 131.394 244.796C131.075 245.001 130.906 244.997 130.83 244.973C130.754 244.95 130.613 244.857 130.467 244.507C130.324 244.163 130.213 243.651 130.15 242.955C130.023 241.568 130.095 239.572 130.363 237.015C130.899 231.91 132.203 224.669 134.166 215.81C138.09 198.096 144.632 173.963 152.864 147.614C161.095 121.266 169.454 97.7007 176.311 80.903C179.741 72.5016 182.79 65.806 185.256 61.304C186.491 59.0494 187.568 57.3673 188.462 56.2986C188.91 55.7623 189.293 55.405 189.606 55.2037C189.925 54.9987 190.094 55.003 190.17 55.0266C190.246 55.0503 190.387 55.1432 190.533 55.4933C190.676 55.8371 190.787 56.3486 190.85 57.0448C190.977 58.4322 190.905 60.4282 190.637 62.9848C190.101 68.09 188.797 75.3307 186.834 84.1903C182.91 101.904 176.368 126.037 168.136 152.386Z" stroke="#FFDC20" stroke-opacity="0.5"/>
<path d="M167.201 154.371C152.12 177.492 137.673 197.899 126.509 212.202C120.926 219.355 116.172 224.97 112.576 228.633C110.775 230.467 109.281 231.793 108.131 232.579C107.554 232.973 107.088 233.213 106.732 233.322C106.37 233.432 106.208 233.382 106.141 233.339C106.075 233.296 105.964 233.168 105.919 232.791C105.875 232.422 105.907 231.899 106.035 231.212C106.29 229.842 106.902 227.941 107.855 225.553C109.757 220.786 112.98 214.172 117.276 206.179C125.865 190.197 138.718 168.751 153.799 145.63C168.88 122.508 183.327 102.101 194.491 87.7985C200.074 80.6451 204.828 75.0298 208.424 71.3672C210.225 69.533 211.719 68.2067 212.869 67.421C213.446 67.0268 213.912 66.7868 214.268 66.6782C214.63 66.5677 214.792 66.6178 214.859 66.6611C214.925 66.7045 215.036 66.8324 215.081 67.2089C215.125 67.5786 215.093 68.101 214.965 68.7883C214.71 70.1579 214.098 72.0591 213.145 74.4467C211.243 79.2143 208.02 85.8282 203.724 93.8213C195.135 109.803 182.282 131.25 167.201 154.371Z" stroke="#FFDC20" stroke-opacity="0.5"/>
<path d="M165.926 155.879C145.64 174.601 126.635 190.848 112.308 201.98C105.142 207.547 99.1574 211.827 94.7732 214.497C92.5777 215.834 90.805 216.754 89.4971 217.234C88.8408 217.475 88.331 217.593 87.9591 217.612C87.5803 217.63 87.4357 217.542 87.3819 217.483C87.3281 217.425 87.2517 217.274 87.3003 216.898C87.3481 216.529 87.5072 216.03 87.7998 215.395C88.3828 214.13 89.4417 212.436 90.9502 210.355C93.9625 206.198 98.7073 200.576 104.831 193.878C117.073 180.488 134.789 162.843 155.074 144.121C175.36 125.399 194.365 109.152 208.693 98.0204C215.858 92.4528 221.843 88.1732 226.227 85.5032C228.422 84.1661 230.195 83.246 231.503 82.7661C232.159 82.5253 232.669 82.4066 233.041 82.3886C233.42 82.3702 233.564 82.4585 233.618 82.5168C233.672 82.5751 233.748 82.7263 233.7 83.1024C233.652 83.4716 233.493 83.9702 233.2 84.6052C232.617 85.8705 231.558 87.5639 230.05 89.6454C227.038 93.8018 222.293 99.4246 216.17 106.122C203.927 119.512 186.211 137.157 165.926 155.879Z" stroke="#FFDC20" stroke-opacity="0.5"/>
<path d="M164.734 156.788C141.311 171.396 119.607 183.811 103.455 192.074C95.376 196.207 88.698 199.295 83.8927 201.1C81.4862 202.004 79.573 202.577 78.1985 202.804C77.5087 202.918 76.9858 202.94 76.6171 202.888C76.2415 202.835 76.1159 202.722 76.0739 202.654C76.0319 202.587 75.9851 202.424 76.103 202.064C76.2189 201.71 76.4682 201.25 76.8741 200.681C77.683 199.546 79.0393 198.08 80.9098 196.317C84.6447 192.796 90.3554 188.157 97.6207 182.72C112.147 171.849 132.844 157.82 156.266 143.212C179.689 128.604 201.393 116.189 217.545 107.926C225.624 103.793 232.302 100.705 237.107 98.9004C239.514 97.9965 241.427 97.4233 242.802 97.1959C243.491 97.0818 244.014 97.0603 244.383 97.112C244.759 97.1646 244.884 97.2783 244.926 97.3456C244.968 97.413 245.015 97.5758 244.897 97.9362C244.781 98.29 244.532 98.7502 244.126 99.3194C243.317 100.454 241.961 101.92 240.09 103.683C236.355 107.205 230.645 111.843 223.379 117.28C208.853 128.151 188.156 142.18 164.734 156.788Z" stroke="#FFDC20" stroke-opacity="0.5"/>
<path d="M163.352 157.474C137.562 167.316 113.879 175.336 96.441 180.345C87.7193 182.851 80.573 184.6 75.5106 185.449C72.9754 185.875 70.9877 186.07 69.5951 186.029C68.8963 186.009 68.3789 185.93 68.027 185.808C67.6685 185.685 67.5671 185.549 67.5388 185.475C67.5105 185.401 67.4958 185.232 67.6807 184.901C67.8622 184.576 68.1953 184.172 68.7028 183.691C69.7143 182.733 71.3268 181.555 73.5009 180.183C77.8421 177.444 84.3368 173.987 92.5105 170.045C108.853 162.164 131.857 152.368 157.648 142.526C183.438 132.684 207.121 124.665 224.559 119.655C233.281 117.149 240.427 115.4 245.489 114.551C248.025 114.125 250.012 113.93 251.405 113.971C252.104 113.991 252.621 114.07 252.973 114.192C253.332 114.316 253.433 114.451 253.461 114.525C253.49 114.599 253.504 114.768 253.319 115.099C253.138 115.424 252.805 115.828 252.297 116.309C251.286 117.267 249.673 118.445 247.499 119.817C243.158 122.556 236.663 126.013 228.49 129.955C212.147 137.836 189.143 147.632 163.352 157.474Z" stroke="#FFDC20" stroke-opacity="0.5"/>
<path d="M161.509 157.936C134.124 161.416 109.218 163.622 91.0903 164.377C82.0238 164.755 74.6665 164.768 69.5466 164.399C66.9826 164.215 65.005 163.936 63.6612 163.568C62.987 163.383 62.5029 163.184 62.1895 162.983C61.8704 162.778 61.8038 162.622 61.7938 162.544C61.7838 162.465 61.8093 162.297 62.0671 162.019C62.3202 161.746 62.7391 161.432 63.3458 161.085C64.5547 160.393 66.3997 159.628 68.836 158.808C73.7009 157.17 80.8277 155.343 89.7005 153.441C107.441 149.637 132.107 145.544 159.491 142.064C186.876 138.584 211.782 136.378 229.91 135.623C238.976 135.246 246.333 135.232 251.453 135.601C254.017 135.785 255.995 136.064 257.339 136.432C258.013 136.617 258.497 136.816 258.81 137.017C259.13 137.222 259.196 137.378 259.206 137.457C259.216 137.535 259.191 137.703 258.933 137.981C258.68 138.254 258.261 138.568 257.654 138.915C256.445 139.607 254.6 140.372 252.164 141.192C247.299 142.83 240.172 144.657 231.299 146.559C213.559 150.363 188.893 154.456 161.509 157.936Z" stroke="#FFDC20" stroke-opacity="0.5"/>
<path d="M159.591 157.948C132.165 154.811 107.45 151.027 89.663 147.446C80.7671 145.654 73.618 143.917 68.733 142.34C66.2866 141.55 64.4322 140.809 63.2147 140.132C62.6037 139.792 62.1809 139.483 61.9244 139.213C61.6632 138.939 61.6356 138.771 61.6446 138.693C61.6536 138.614 61.7182 138.457 62.0348 138.248C62.3456 138.043 62.8272 137.838 63.4991 137.645C64.8381 137.26 66.8121 136.957 69.3736 136.74C74.4884 136.307 81.8453 136.229 90.9159 136.493C109.052 137.02 133.983 138.915 161.409 142.052C188.835 145.189 213.55 148.973 231.337 152.555C240.233 154.346 247.382 156.083 252.267 157.66C254.713 158.45 256.568 159.191 257.785 159.869C258.396 160.208 258.819 160.517 259.076 160.787C259.337 161.062 259.364 161.229 259.355 161.308C259.346 161.386 259.282 161.543 258.965 161.752C258.654 161.957 258.173 162.162 257.501 162.355C256.162 162.74 254.188 163.044 251.626 163.26C246.512 163.693 239.155 163.772 230.084 163.508C211.948 162.98 187.017 161.085 159.591 157.948Z" stroke="#FFDC20" stroke-opacity="0.5"/>
<path d="M157.613 157.461C131.868 147.499 108.91 137.596 92.6044 129.639C84.4492 125.659 77.9706 122.172 73.6422 119.413C71.4745 118.031 69.8675 116.845 68.8605 115.882C68.3552 115.399 68.024 114.994 67.844 114.668C67.6606 114.336 67.6761 114.167 67.7047 114.093C67.7334 114.019 67.8354 113.884 68.1945 113.762C68.547 113.642 69.0647 113.565 69.7636 113.548C71.1564 113.514 73.1431 113.719 75.6763 114.156C80.7347 115.029 87.8729 116.811 96.5828 119.357C113.998 124.448 137.642 132.577 163.387 142.539C189.132 152.501 212.09 162.404 228.396 170.362C236.551 174.341 243.029 177.828 247.358 180.587C249.525 181.969 251.132 183.155 252.139 184.118C252.645 184.601 252.976 185.006 253.156 185.332C253.339 185.664 253.324 185.833 253.295 185.907C253.267 185.981 253.164 186.116 252.805 186.238C252.453 186.358 251.935 186.435 251.236 186.452C249.844 186.486 247.857 186.281 245.324 185.844C240.265 184.971 233.127 183.189 224.417 180.643C207.002 175.552 183.358 167.423 157.613 157.461Z" stroke="#FFDC20" stroke-opacity="0.5"/>
<path d="M155.834 156.499C133.41 140.4 113.669 125.056 99.8791 113.264C92.9823 107.367 87.5851 102.367 84.0868 98.6105C82.3349 96.7293 81.0766 95.1782 80.3431 93.9937C79.9751 93.3994 79.7561 92.924 79.6636 92.5633C79.5693 92.196 79.6266 92.0366 79.6729 91.9722C79.7192 91.9077 79.8519 91.8024 80.23 91.7743C80.6013 91.7467 81.1218 91.8021 81.8026 91.9608C83.1595 92.277 85.0315 92.9732 87.3741 94.0316C92.052 96.145 98.5153 99.6601 106.308 104.309C121.89 113.604 142.741 127.402 165.166 143.501C187.59 159.6 207.331 174.944 221.121 186.736C228.018 192.633 233.415 197.633 236.913 201.39C238.665 203.271 239.923 204.822 240.657 206.006C241.025 206.601 241.244 207.076 241.336 207.437C241.431 207.804 241.373 207.963 241.327 208.028C241.281 208.092 241.148 208.198 240.77 208.226C240.399 208.253 239.878 208.198 239.197 208.039C237.84 207.723 235.968 207.027 233.626 205.968C228.948 203.855 222.485 200.34 214.691 195.691C199.11 186.396 178.259 172.598 155.834 156.499Z" stroke="#FFDC20" stroke-opacity="0.5"/>
<path d="M154.398 155.174C136.546 134.119 121.113 114.446 110.594 99.6635C105.333 92.2699 101.308 86.1107 98.8253 81.6181C97.5817 79.3683 96.737 77.5585 96.3126 76.2315C96.0996 75.5656 96.0025 75.0513 96.0001 74.679C95.9977 74.2998 96.0919 74.159 96.1524 74.1077C96.213 74.0564 96.3672 73.9864 96.7409 74.0508C97.1079 74.1141 97.5993 74.294 98.2214 74.613C99.4611 75.2488 101.108 76.378 103.125 77.9728C107.151 81.1572 112.569 86.1344 119.002 92.5339C131.866 105.329 148.75 123.771 166.602 144.826C184.454 165.882 199.887 185.554 210.406 200.337C215.667 207.73 219.691 213.889 222.175 218.382C223.418 220.632 224.263 222.442 224.687 223.769C224.9 224.434 224.997 224.949 225 225.321C225.002 225.7 224.908 225.841 224.847 225.892C224.787 225.944 224.633 226.014 224.259 225.949C223.892 225.886 223.401 225.706 222.779 225.387C221.539 224.751 219.891 223.622 217.875 222.027C213.849 218.843 208.431 213.866 201.997 207.466C189.134 194.671 172.25 176.229 154.398 155.174Z" stroke="#FFDC20" stroke-opacity="0.5"/>
<path d="M152.955 152.658C143.782 126.622 136.376 102.741 131.818 85.1792C129.538 76.3957 127.974 69.2066 127.256 64.124C126.896 61.5786 126.752 59.5866 126.829 58.1955C126.867 57.4974 126.96 56.9823 127.09 56.6336C127.223 56.2784 127.362 56.1805 127.436 56.1542C127.511 56.1278 127.68 56.1174 128.006 56.3108C128.327 56.5007 128.722 56.8441 129.189 57.3639C130.121 58.3998 131.257 60.0421 132.573 62.2509C135.199 66.6614 138.487 73.2431 142.216 81.5158C149.673 98.0562 158.872 121.306 168.045 147.342C177.218 173.378 184.624 197.259 189.182 214.821C191.462 223.604 193.025 230.793 193.744 235.876C194.104 238.421 194.248 240.414 194.171 241.805C194.133 242.503 194.04 243.018 193.91 243.366C193.777 243.722 193.638 243.82 193.564 243.846C193.489 243.872 193.32 243.883 192.993 243.689C192.673 243.499 192.278 243.156 191.811 242.636C190.879 241.6 189.743 239.958 188.427 237.749C185.801 233.339 182.513 226.757 178.784 218.484C171.327 201.944 162.128 178.695 152.955 152.658Z" stroke="#FFDC20" stroke-opacity="0.5"/>
<path d="M176 150.5C176 159.06 169.06 166 160.5 166C151.94 166 145 159.06 145 150.5C145 141.94 151.94 135 160.5 135C169.06 135 176 141.94 176 150.5Z" fill="url(#paint1_diamond_12_63)"/>
<path d="M176 150.5C176 159.06 169.06 166 160.5 166C151.94 166 145 159.06 145 150.5C145 141.94 151.94 135 160.5 135C169.06 135 176 141.94 176 150.5Z" fill="url(#paint2_diamond_12_63)"/>
<circle cx="160.5" cy="81.5" r="15.5" fill="url(#paint3_diamond_12_63)"/>
<circle cx="117.5" cy="204.5" r="15.5" fill="url(#paint4_diamond_12_63)"/>
<circle cx="209.5" cy="200.5" r="15.5" fill="url(#paint5_diamond_12_63)"/>
<path d="M111 124.5C111 133.06 104.06 140 95.5 140C86.9396 140 80 133.06 80 124.5C80 115.94 86.9396 109 95.5 109C104.06 109 111 115.94 111 124.5Z" fill="url(#paint6_diamond_12_63)"/>
<path d="M111 124.5C111 133.06 104.06 140 95.5 140C86.9396 140 80 133.06 80 124.5C80 115.94 86.9396 109 95.5 109C104.06 109 111 115.94 111 124.5Z" fill="url(#paint7_diamond_12_63)"/>
<path d="M241 124.5C241 133.06 234.06 140 225.5 140C216.94 140 210 133.06 210 124.5C210 115.94 216.94 109 225.5 109C234.06 109 241 115.94 241 124.5Z" fill="url(#paint8_diamond_12_63)"/>
<path d="M241 124.5C241 133.06 234.06 140 225.5 140C216.94 140 210 133.06 210 124.5C210 115.94 216.94 109 225.5 109C234.06 109 241 115.94 241 124.5Z" fill="url(#paint9_diamond_12_63)"/>
<rect x="158" y="89" width="4" height="56" fill="url(#paint10_diamond_12_63)"/>
<rect x="101" y="130.781" width="4" height="56" transform="rotate(-70.9305 101 130.781)" fill="url(#paint11_diamond_12_63)"/>
<rect x="165" y="158.975" width="4" height="56" transform="rotate(-48.0518 165 158.975)" fill="url(#paint12_diamond_12_63)"/>
<rect x="156.681" y="156" width="4" height="56" transform="rotate(43.688 156.681 156)" fill="url(#paint13_diamond_12_63)"/>
<rect x="215.57" y="124.852" width="4" height="56" transform="rotate(64.365 215.57 124.852)" fill="url(#paint14_diamond_12_63)"/>
<g filter="url(#filter0_d_12_63)">
<path d="M48.82 160.86C47.34 161.5 45.62 161.96 43.66 162.24C41.7 162.52 39.88 162.66 38.2 162.66C32.76 162.66 28.5 161.24 25.42 158.4C22.34 155.56 20.8 151.2 20.8 145.32C20.8 139.32 22.42 134.84 25.66 131.88C28.9 128.88 33.46 127.38 39.34 127.38C42.14 127.38 45.06 127.76 48.1 128.52C48.1 129.32 48.02 130.52 47.86 132.12C47.7 133.68 47.54 134.78 47.38 135.42H43.6C40.84 135.42 38.66 135.48 37.06 135.6C35.5 135.68 34.56 135.86 34.24 136.14C33.64 136.7 33.18 137.84 32.86 139.56C32.54 141.24 32.38 142.86 32.38 144.42C32.38 147.14 32.72 149.24 33.4 150.72C34.08 152.16 34.94 153.12 35.98 153.6C36.98 154.08 38.64 154.32 40.96 154.32C42.8 154.32 45.2 154.16 48.16 153.84L48.82 160.86ZM83.9017 162H72.5617L70.5217 153.36C70.4417 153.04 70.3017 152.5 70.1017 151.74C69.9417 150.94 69.7417 150.36 69.5017 150C69.2617 149.6 68.9217 149.34 68.4817 149.22C67.3617 149.26 65.7217 149.28 63.5617 149.28V162H52.7617V128.1C57.6017 127.74 62.1217 127.56 66.3217 127.56C70.1217 127.56 73.2017 127.88 75.5617 128.52C77.9217 129.12 79.6817 130.18 80.8417 131.7C82.0417 133.18 82.6417 135.22 82.6417 137.82C82.6417 140.26 82.0817 142.18 80.9617 143.58C79.8417 144.94 78.0417 145.76 75.5617 146.04V146.4C76.9617 146.52 78.1217 146.98 79.0417 147.78C80.0017 148.54 80.6417 149.52 80.9617 150.72L83.9017 162ZM63.5617 142.5C63.9217 142.54 64.6217 142.56 65.6617 142.56C68.7417 142.56 70.5417 142.3 71.0617 141.78C71.5417 141.3 71.7817 140.18 71.7817 138.42C71.7817 136.78 71.3417 135.66 70.4617 135.06C69.6217 134.46 68.2217 134.16 66.2617 134.16C65.8217 134.16 64.9217 134.2 63.5617 134.28V142.5ZM104.246 162.78C98.2864 162.78 93.8064 161.38 90.8064 158.58C87.8464 155.74 86.3664 151.2 86.3664 144.96C86.3664 138.84 88.0064 134.38 91.2864 131.58C94.5664 128.78 98.9064 127.38 104.306 127.38C115.666 127.38 121.346 133.04 121.346 144.36C121.346 150.08 119.946 154.58 117.146 157.86C114.386 161.14 110.086 162.78 104.246 162.78ZM104.006 155.7C105.126 155.7 106.066 155.52 106.826 155.16C107.586 154.76 108.186 154.08 108.626 153.12C109.466 151.48 109.886 148.8 109.886 145.08C109.886 141.44 109.466 138.8 108.626 137.16C107.786 135.48 106.246 134.6 104.006 134.52C103.166 134.52 102.286 134.62 101.366 134.82C100.486 134.98 99.9264 135.22 99.6864 135.54C99.2064 136.1 98.8264 137.3 98.5464 139.14C98.3064 140.94 98.1864 142.92 98.1864 145.08C98.1864 148.44 98.5064 150.9 99.1464 152.46C99.5864 153.62 100.206 154.46 101.006 154.98C101.806 155.46 102.806 155.7 104.006 155.7ZM157.261 162H145.921L143.881 153.36C143.801 153.04 143.661 152.5 143.461 151.74C143.301 150.94 143.101 150.36 142.861 150C142.621 149.6 142.281 149.34 141.841 149.22C140.721 149.26 139.081 149.28 136.921 149.28V162H126.121V128.1C130.961 127.74 135.481 127.56 139.681 127.56C143.481 127.56 146.561 127.88 148.921 128.52C151.281 129.12 153.041 130.18 154.201 131.7C155.401 133.18 156.001 135.22 156.001 137.82C156.001 140.26 155.441 142.18 154.321 143.58C153.201 144.94 151.401 145.76 148.921 146.04V146.4C150.321 146.52 151.481 146.98 152.401 147.78C153.361 148.54 154.001 149.52 154.321 150.72L157.261 162ZM136.921 142.5C137.281 142.54 137.981 142.56 139.021 142.56C142.101 142.56 143.901 142.3 144.421 141.78C144.901 141.3 145.141 140.18 145.141 138.42C145.141 136.78 144.701 135.66 143.821 135.06C142.981 134.46 141.581 134.16 139.621 134.16C139.181 134.16 138.281 134.2 136.921 134.28V142.5ZM160.626 127.8H185.526V135H171.426V141.24H183.306V147.72H171.426V154.68H185.466V162H160.626V127.8ZM203.905 127.62C207.145 127.62 209.885 127.92 212.125 128.52C214.365 129.12 216.145 130.28 217.465 132C218.825 133.68 219.505 136.1 219.505 139.26C219.505 140.66 219.285 142.1 218.845 143.58C218.445 145.02 217.925 146.28 217.285 147.36C216.685 148.44 216.145 149.14 215.665 149.46C215.105 149.86 213.865 150.18 211.945 150.42C210.025 150.62 207.765 150.72 205.165 150.72C204.245 150.72 202.825 150.68 200.905 150.6V162H190.105V127.8C194.305 127.68 198.905 127.62 203.905 127.62ZM208.405 143.04C208.805 142.52 209.005 141.48 209.005 139.92C209.005 137.88 208.565 136.44 207.685 135.6C206.845 134.76 205.365 134.34 203.245 134.34C202.525 134.34 201.745 134.4 200.905 134.52V143.64C201.305 143.68 202.085 143.7 203.245 143.7C206.325 143.7 208.045 143.48 208.405 143.04ZM242.366 154.5H232.406L230.606 162H219.566L230.606 127.8H244.706L255.266 162H244.166L242.366 154.5ZM237.326 135.18L233.786 147.84H240.926L237.566 135.18H237.326ZM273.495 162H262.695V135.3H253.035V127.8H283.155V135.3H273.495V162ZM286.669 127.8H297.469V162H286.669V127.8Z" fill="white"/>
</g>
<rect x="34" y="102.071" width="10" height="10" transform="rotate(-45 34 102.071)" fill="url(#paint15_linear_12_63)"/>
<rect x="27" y="189.071" width="10" height="10" transform="rotate(-45 27 189.071)" fill="url(#paint16_linear_12_63)"/>
<rect x="270" y="102.071" width="10" height="10" transform="rotate(-45 270 102.071)" fill="url(#paint17_linear_12_63)"/>
<rect x="276" y="186.071" width="10" height="10" transform="rotate(-45 276 186.071)" fill="url(#paint18_linear_12_63)"/>
<path d="M75.5495 61.4587L64.6808 46.883L67.3212 44.9141L72.3151 51.6113L72.493 51.4786L73.1857 40.5412L76.4097 38.1371L75.6501 48.8808L87.3282 52.6756L84.154 55.0426L75.146 52.0364L74.9527 55.1484L78.1899 59.4898L75.5495 61.4587Z" fill="white"/>
<path d="M62.3759 249.905L74.6601 236.501L77.0883 238.726L71.4441 244.885L71.6077 245.035L82.4815 243.669L85.4464 246.386L74.7504 247.65L73.208 259.832L70.2889 257.157L71.5562 247.746L68.463 248.138L64.8041 252.131L62.3759 249.905Z" fill="white"/>
<path d="M92.8489 49.1663L89.7394 50.8066L86.9179 31.7386L90.5143 29.8415L104.667 42.9325L101.557 44.5727L90.5186 34.0549L90.393 34.1212L92.8489 49.1663ZM89.6249 42.8071L98.1054 38.3336L99.3398 40.6736L90.8593 45.1471L89.6249 42.8071Z" fill="white"/>
<path d="M78.4506 262.154L75.3411 260.514L89.4852 247.418L93.0816 249.315L90.2686 268.387L87.159 266.747L89.6067 251.698L89.481 251.632L78.4506 262.154ZM81.8786 255.902L90.3593 260.376L89.125 262.716L80.6443 258.242L81.8786 255.902Z" fill="white"/>
<path d="M111.469 21.5437L114.524 20.3128L118.963 31.3308C119.449 32.5385 119.592 33.7158 119.39 34.8626C119.194 36.0072 118.687 37.0443 117.868 37.974C117.047 38.8981 115.951 39.6367 114.578 40.1896C113.2 40.7448 111.895 40.9739 110.663 40.8769C109.428 40.7745 108.344 40.3788 107.409 39.6898C106.474 39.0009 105.763 38.0525 105.277 36.8448L100.838 25.8268L103.893 24.596L108.229 35.3586C108.512 36.0613 108.918 36.6252 109.446 37.0503C109.981 37.4732 110.593 37.7272 111.285 37.8123C111.974 37.892 112.706 37.7758 113.48 37.464C114.254 37.1521 114.862 36.7286 115.303 36.1933C115.748 35.6504 116.014 35.0425 116.1 34.3697C116.186 33.6968 116.088 33.0091 115.805 32.3064L111.469 21.5437Z" fill="white"/>
<path d="M109.33 258.349L112.385 259.58L107.947 270.598C107.46 271.806 106.747 272.753 105.807 273.44C104.872 274.129 103.787 274.525 102.553 274.627C101.32 274.724 100.018 274.496 98.6456 273.944C97.2676 273.389 96.1682 272.649 95.3472 271.725C94.5285 270.795 94.021 269.758 93.8248 268.614C93.6287 267.469 93.7739 266.293 94.2604 265.085L98.6986 254.067L101.754 255.297L97.4183 266.06C97.1353 266.763 97.0369 267.451 97.1232 268.124C97.215 268.799 97.4806 269.407 97.92 269.947C98.3616 270.483 98.9695 270.906 99.7435 271.218C100.518 271.53 101.249 271.646 101.939 271.566C102.636 271.483 103.248 271.229 103.777 270.804C104.306 270.379 104.711 269.815 104.994 269.112L109.33 258.349Z" fill="white"/>
<path d="M136.609 15.1759L140.646 32.9039L137.789 33.5544L126.686 23.3812L126.539 23.4147L129.289 35.4901L126.077 36.2214L122.04 18.4935L124.914 17.839L136.011 28.0229L136.166 27.9874L133.415 15.9033L136.609 15.1759Z" fill="white"/>
<path d="M131.687 264.389L127.649 282.117L124.793 281.466L119.19 267.489L119.042 267.455L116.292 279.53L113.081 278.799L117.118 261.071L119.992 261.726L125.585 275.71L125.74 275.746L128.493 263.662L131.687 264.389Z" fill="white"/>
<path d="M158.065 31.0569L158.896 12.894L165.849 13.2118C167.161 13.2718 168.243 13.5286 169.093 13.9822C169.949 14.4302 170.577 15.0188 170.976 15.748C171.381 16.4775 171.563 17.2916 171.522 18.1902C171.488 18.9293 171.318 19.5554 171.01 20.0686C170.702 20.576 170.301 20.9813 169.808 21.2846C169.314 21.5879 168.768 21.7969 168.17 21.9118L168.162 22.0892C168.805 22.1541 169.414 22.3804 169.989 22.7681C170.57 23.1501 171.034 23.675 171.383 24.3426C171.732 25.0103 171.885 25.8053 171.843 26.7276C171.8 27.6677 171.534 28.5028 171.044 29.2328C170.555 29.957 169.842 30.5139 168.906 30.9036C167.97 31.2933 166.807 31.4564 165.418 31.3929L158.065 31.0569ZM161.481 28.458L165.02 28.6198C166.214 28.6743 167.085 28.486 167.632 28.0548C168.185 27.618 168.478 27.0389 168.511 26.3176C168.536 25.7796 168.425 25.2887 168.179 24.8449C167.932 24.3952 167.57 24.035 167.09 23.7643C166.611 23.4876 166.032 23.3337 165.352 23.3027L161.725 23.1368L161.481 28.458ZM161.833 20.7689L165.088 20.9177C165.655 20.9437 166.171 20.8636 166.636 20.6775C167.101 20.4854 167.472 20.2032 167.75 19.8308C168.034 19.4527 168.188 18.9976 168.212 18.4655C168.245 17.7619 168.023 17.1712 167.547 16.6932C167.077 16.2155 166.357 15.9545 165.388 15.9102L162.062 15.7582L161.833 20.7689Z" fill="white"/>
<path d="M152.889 287.67L152.057 269.507L159.01 269.189C160.323 269.129 161.423 269.286 162.311 269.66C163.205 270.028 163.884 270.557 164.348 271.247C164.818 271.936 165.073 272.73 165.115 273.629C165.148 274.368 165.035 275.007 164.776 275.546C164.516 276.079 164.154 276.52 163.69 276.867C163.226 277.214 162.701 277.472 162.117 277.641L162.125 277.818C162.771 277.824 163.398 277.994 164.005 278.328C164.619 278.655 165.13 279.135 165.538 279.768C165.946 280.401 166.171 281.179 166.213 282.101C166.256 283.041 166.067 283.897 165.646 284.669C165.225 285.435 164.566 286.054 163.67 286.528C162.773 287.001 161.63 287.27 160.241 287.334L152.889 287.67ZM156.053 284.77L159.592 284.608C160.786 284.554 161.636 284.287 162.141 283.807C162.652 283.322 162.891 282.718 162.858 281.997C162.833 281.459 162.678 280.98 162.392 280.561C162.106 280.136 161.712 279.81 161.21 279.584C160.708 279.352 160.117 279.252 159.437 279.283L155.809 279.449L156.053 284.77ZM155.701 277.081L158.956 276.932C159.523 276.906 160.03 276.779 160.476 276.552C160.921 276.318 161.265 276.003 161.508 275.607C161.756 275.204 161.868 274.737 161.844 274.205C161.812 273.501 161.537 272.933 161.019 272.501C160.508 272.068 159.767 271.874 158.798 271.918L155.472 272.07L155.701 277.081Z" fill="white"/>
<path d="M176.37 32.3142L172.944 31.525L183.263 15.2441L187.225 16.1568L189.39 35.3135L185.964 34.5243L184.476 19.3499L184.338 19.318L176.37 32.3142ZM178.082 25.3931L187.426 27.5454L186.832 30.1235L177.489 27.9712L178.082 25.3931Z" fill="white"/>
<path d="M174.409 286.726L170.984 287.515L173.14 268.36L177.103 267.447L187.43 283.727L184.004 284.516L176.028 271.521L175.889 271.553L174.409 286.726ZM172.922 279.753L182.265 277.601L182.859 280.179L173.516 282.331L172.922 279.753Z" fill="white"/>
<path d="M210.736 21.4263L206.655 39.1441L203.8 38.4864L198.231 24.4948L198.084 24.4609L195.304 36.5294L192.094 35.7901L196.176 18.0723L199.048 18.7339L204.606 32.7322L204.762 32.7681L207.544 20.6909L210.736 21.4263Z" fill="white"/>
<path d="M201.614 262.178L205.694 279.896L202.839 280.554L191.711 270.408L191.564 270.442L194.344 282.51L191.134 283.25L187.053 265.532L189.926 264.87L201.047 275.027L201.203 274.991L198.421 262.913L201.614 262.178Z" fill="white"/>
<path d="M210.225 40.3893L218.136 24.0188L228.784 29.1642L227.582 31.6501L219.901 27.9379L217.753 32.3822L224.883 35.8279L223.682 38.3139L216.552 34.8682L214.392 39.3365L222.138 43.0796L220.936 45.5656L210.225 40.3893Z" fill="white"/>
<path d="M213.056 277.79L205.146 261.42L215.793 256.275L216.995 258.761L209.313 262.473L211.46 266.917L218.591 263.472L219.792 265.958L212.662 269.403L214.821 273.871L222.567 270.129L223.768 272.615L213.056 277.79Z" fill="white"/>
<path d="M240.682 43.4522C240.836 42.975 240.916 42.5065 240.921 42.0469C240.934 41.5858 240.872 41.1401 240.733 40.7097C240.599 40.2827 240.383 39.8807 240.083 39.5038C239.788 39.122 239.417 38.7744 238.972 38.4611C238.173 37.8993 237.32 37.5996 236.413 37.5621C235.506 37.5246 234.599 37.7695 233.692 38.2969C232.794 38.8228 231.954 39.6425 231.17 40.7559C230.38 41.8789 229.888 42.9544 229.693 43.9824C229.498 45.0103 229.572 45.949 229.916 46.7983C230.262 47.6428 230.852 48.3579 231.684 48.9436C232.44 49.4748 233.195 49.7893 233.951 49.8871C234.712 49.9882 235.43 49.8781 236.105 49.5568C236.783 49.2306 237.376 48.7068 237.883 47.9856L238.427 48.509L234.39 45.669L235.871 43.5632L241.905 47.808L240.648 49.5942C239.753 50.8673 238.707 51.7779 237.511 52.326C236.315 52.874 235.066 53.066 233.763 52.902C232.463 52.7332 231.199 52.2163 229.969 51.3513C228.599 50.3876 227.612 49.234 227.009 47.8905C226.414 46.5456 226.226 45.1 226.445 43.5537C226.673 42.0061 227.338 40.4481 228.441 38.8796C229.286 37.6791 230.21 36.7261 231.213 36.0205C232.22 35.3183 233.263 34.8543 234.341 34.6284C235.422 34.3977 236.498 34.4017 237.567 34.6403C238.64 34.874 239.663 35.3332 240.636 36.0176C241.459 36.5965 242.141 37.2573 242.683 37.9999C243.227 38.7377 243.621 39.5209 243.863 40.3497C244.109 41.1818 244.199 42.0264 244.132 42.8835C244.064 43.7406 243.829 44.5738 243.426 45.383L240.682 43.4522Z" fill="white"/>
<path d="M233.117 252.4C232.72 252.093 232.306 251.859 231.876 251.699C231.446 251.531 231.005 251.439 230.553 251.424C230.106 251.406 229.655 251.474 229.199 251.628C228.74 251.777 228.287 252.009 227.842 252.322C227.043 252.884 226.473 253.585 226.131 254.426C225.789 255.267 225.713 256.204 225.903 257.235C226.094 258.258 226.582 259.326 227.365 260.44C228.155 261.563 229 262.39 229.902 262.921C230.804 263.452 231.712 263.699 232.627 263.663C233.539 263.622 234.412 263.309 235.244 262.723C235.999 262.192 236.551 261.587 236.898 260.909C237.251 260.227 237.39 259.514 237.316 258.77C237.238 258.022 236.945 257.287 236.438 256.566L237.114 256.231L233.077 259.071L231.596 256.965L237.63 252.721L238.886 254.507C239.782 255.78 240.285 257.072 240.397 258.383C240.509 259.694 240.267 260.935 239.672 262.105C239.074 263.271 238.16 264.287 236.931 265.152C235.56 266.115 234.141 266.654 232.673 266.768C231.206 266.873 229.782 266.562 228.401 265.833C227.021 265.095 225.78 263.942 224.677 262.374C223.832 261.173 223.247 259.982 222.922 258.799C222.602 257.614 222.518 256.475 222.67 255.385C222.818 254.289 223.185 253.278 223.771 252.352C224.354 251.421 225.132 250.614 226.105 249.929C226.928 249.351 227.78 248.932 228.662 248.673C229.541 248.41 230.411 248.305 231.272 248.357C232.139 248.406 232.964 248.607 233.748 248.96C234.532 249.313 235.237 249.816 235.862 250.469L233.117 252.4Z" fill="white"/>
<path d="M241.133 61.1713L238.597 58.7364L255.807 50.0543L258.74 52.8704L250.771 70.425L248.235 67.9901L254.742 54.2012L254.64 54.1028L241.133 61.1713ZM246.154 56.1089L253.07 62.7494L251.238 64.6577L244.322 58.0172L246.154 56.1089Z" fill="white"/>
<path d="M248.599 255.613L246.062 258.047L238.089 240.498L241.022 237.682L258.237 246.36L255.701 248.794L242.189 241.731L242.086 241.829L248.599 255.613ZM243.745 250.39L250.662 243.75L252.494 245.658L245.577 252.298L243.745 250.39Z" fill="white"/>
<defs>
<filter id="filter0_d_12_63" x="0.799988" y="111.38" width="316.669" height="75.4" filterUnits="userSpaceOnUse" color-interpolation-filters="sRGB">
<feFlood flood-opacity="0" result="BackgroundImageFix"/>
<feColorMatrix in="SourceAlpha" type="matrix" values="0 0 0 0 0 0 0 0 0 0 0 0 0 0 0 0 0 0 127 0" result="hardAlpha"/>
<feOffset dy="4"/>
<feGaussianBlur stdDeviation="10"/>
<feComposite in2="hardAlpha" operator="out"/>
<feColorMatrix type="matrix" values="0 0 0 0 0 0 0 0 0 0 0 0 0 0 0 0 0 0 0.25 0"/>
<feBlend mode="normal" in2="BackgroundImageFix" result="effect1_dropShadow_12_63"/>
<feBlend mode="normal" in="SourceGraphic" in2="effect1_dropShadow_12_63" result="shape"/>
</filter>
<linearGradient id="paint0_linear_12_63" x1="160" y1="0" x2="160" y2="300" gradientUnits="userSpaceOnUse">
<stop stop-color="#87589A"/>
<stop offset="1" stop-color="#3F1A4E"/>
</linearGradient>
<radialGradient id="paint1_diamond_12_63" cx="0" cy="0" r="1" gradientUnits="userSpaceOnUse" gradientTransform="translate(160.5 150.5) rotate(90) scale(15.5)">
<stop stop-color="#FFDC20"/>
<stop offset="1" stop-color="#F3DC62" stop-opacity="0"/>
</radialGradient>
<radialGradient id="paint2_diamond_12_63" cx="0" cy="0" r="1" gradientUnits="userSpaceOnUse" gradientTransform="translate(160.5 150.5) rotate(90) scale(15.5)">
<stop stop-color="#FFDC20"/>
<stop offset="1" stop-color="#F3DC62" stop-opacity="0"/>
</radialGradient>
<radialGradient id="paint3_diamond_12_63" cx="0" cy="0" r="1" gradientUnits="userSpaceOnUse" gradientTransform="translate(160.5 81.5) rotate(90) scale(15.5)">
<stop stop-color="#FFDC20"/>
<stop offset="1" stop-color="#F3DC62" stop-opacity="0"/>
</radialGradient>
<radialGradient id="paint4_diamond_12_63" cx="0" cy="0" r="1" gradientUnits="userSpaceOnUse" gradientTransform="translate(117.5 204.5) rotate(90) scale(15.5)">
<stop stop-color="#FFDC20"/>
<stop offset="1" stop-color="#F3DC62" stop-opacity="0"/>
</radialGradient>
<radialGradient id="paint5_diamond_12_63" cx="0" cy="0" r="1" gradientUnits="userSpaceOnUse" gradientTransform="translate(209.5 200.5) rotate(90) scale(15.5)">
<stop stop-color="#FFDC20"/>
<stop offset="1" stop-color="#F3DC62" stop-opacity="0"/>
</radialGradient>
<radialGradient id="paint6_diamond_12_63" cx="0" cy="0" r="1" gradientUnits="userSpaceOnUse" gradientTransform="translate(95.5 124.5) rotate(90) scale(15.5)">
<stop stop-color="#FFDC20"/>
<stop offset="1" stop-color="#F3DC62" stop-opacity="0"/>
</radialGradient>
<radialGradient id="paint7_diamond_12_63" cx="0" cy="0" r="1" gradientUnits="userSpaceOnUse" gradientTransform="translate(95.5 124.5) rotate(90) scale(15.5)">
<stop stop-color="#FFDC20"/>
<stop offset="1" stop-color="#F3DC62" stop-opacity="0"/>
</radialGradient>
<radialGradient id="paint8_diamond_12_63" cx="0" cy="0" r="1" gradientUnits="userSpaceOnUse" gradientTransform="translate(225.5 124.5) rotate(90) scale(15.5)">
<stop stop-color="#FFDC20"/>
<stop offset="1" stop-color="#F3DC62" stop-opacity="0"/>
</radialGradient>
<radialGradient id="paint9_diamond_12_63" cx="0" cy="0" r="1" gradientUnits="userSpaceOnUse" gradientTransform="translate(225.5 124.5) rotate(90) scale(15.5)">
<stop stop-color="#FFDC20"/>
<stop offset="1" stop-color="#F3DC62" stop-opacity="0"/>
</radialGradient>
<radialGradient id="paint10_diamond_12_63" cx="0" cy="0" r="1" gradientUnits="userSpaceOnUse" gradientTransform="translate(160 117) rotate(90) scale(28 2)">
<stop stop-color="#FFDC20"/>
<stop offset="1" stop-color="#F3DC62" stop-opacity="0"/>
</radialGradient>
<radialGradient id="paint11_diamond_12_63" cx="0" cy="0" r="1" gradientUnits="userSpaceOnUse" gradientTransform="translate(103 158.781) rotate(90) scale(28 2)">
<stop stop-color="#FFDC20"/>
<stop offset="1" stop-color="#F3DC62" stop-opacity="0"/>
</radialGradient>
<radialGradient id="paint12_diamond_12_63" cx="0" cy="0" r="1" gradientUnits="userSpaceOnUse" gradientTransform="translate(167 186.975) rotate(90) scale(28 2)">
<stop stop-color="#FFDC20"/>
<stop offset="1" stop-color="#F3DC62" stop-opacity="0"/>
</radialGradient>
<radialGradient id="paint13_diamond_12_63" cx="0" cy="0" r="1" gradientUnits="userSpaceOnUse" gradientTransform="translate(158.681 184) rotate(90) scale(28 2)">
<stop stop-color="#FFDC20"/>
<stop offset="1" stop-color="#F3DC62" stop-opacity="0"/>
</radialGradient>
<radialGradient id="paint14_diamond_12_63" cx="0" cy="0" r="1" gradientUnits="userSpaceOnUse" gradientTransform="translate(217.57 152.852) rotate(90) scale(28 2)">
<stop stop-color="#FFDC20"/>
<stop offset="1" stop-color="#F3DC62" stop-opacity="0"/>
</radialGradient>
<linearGradient id="paint15_linear_12_63" x1="39" y1="102.071" x2="39" y2="112.071" gradientUnits="userSpaceOnUse">
<stop stop-color="#FFDC20"/>
<stop offset="1" stop-color="#AF9B32"/>
</linearGradient>
<linearGradient id="paint16_linear_12_63" x1="32" y1="189.071" x2="32" y2="199.071" gradientUnits="userSpaceOnUse">
<stop stop-color="#FFDC20"/>
<stop offset="1" stop-color="#AF9B32"/>
</linearGradient>
<linearGradient id="paint17_linear_12_63" x1="275" y1="102.071" x2="275" y2="112.071" gradientUnits="userSpaceOnUse">
<stop stop-color="#FFDC20"/>
<stop offset="1" stop-color="#AF9B32"/>
</linearGradient>
<linearGradient id="paint18_linear_12_63" x1="281" y1="186.071" x2="281" y2="196.071" gradientUnits="userSpaceOnUse">
<stop stop-color="#FFDC20"/>
<stop offset="1" stop-color="#AF9B32"/>
</linearGradient>
</defs>
</svg>
